<?xml version="1.0" encoding="UTF-8"?>
<svg id="Layer_1" data-name="Layer 1" xmlns="http://www.w3.org/2000/svg" viewBox="0 0 875 450">
  <defs>
    <style>
      .cls-1 {
        fill: #fdd106;
      }

      .cls-1, .cls-2 {
        stroke-width: 0px;
      }

      .cls-2 {
        fill: #194960;
      }
    </style>
  </defs>
  <path class="cls-2" d="M296.32,328.48c-4.49,0-6.49-2.33-5.82-6.82l24.62-138.24c.17-1.16-.17-1.83-1.33-2.16l-5.82-.67c-3.83-.67-5.49-3.16-4.83-7.49l4.49-25.12c.67-4.49,3.33-6.82,7.82-6.82h54.4c4.16,0,6.16,2,6.16,5.99l-.67,16.8.67,2v-.33c7.99-17.13,21.46-25.45,40.59-25.12h3.33c4.33.17,5.82,2.66,4.49,7.49l-11.64,41.75c-1.16,4.33-3.99,5.99-8.49,4.83-2.83-.67-6.15-1-10.15-1-12.14,0-23.62,9.31-26.28,25.29l-17.97,102.81c-.67,4.49-3.33,6.82-7.98,6.82h-45.58Z"/>
  <path class="cls-2" d="M435.49,317.33c-13.31-10.31-19.96-28.61-18.46-55.23.17-9.48,1.33-19.63,3.33-30.44,5.16-29.94,14.31-52.9,24.95-66.04,5.16-6.49,11.15-11.81,17.8-15.97,13.31-8.15,24.95-10.31,40.09-10.31,18.13,0,32.94,4.33,44.09,13.14,11.14,8.82,16.63,21.46,16.13,38.1-.83,21.79-8.32,36.6-23.95,45.41-15.64,8.82-33.44,12.98-61.55,15.14-.83,0-1.5.5-2,1.33-1.5,4.99-2.5,10.31-2.83,15.8-.17,6.49,1.66,10.98,5.49,13.14,3.83,2.33,11.31,3.49,22.46,3.49,9.32,0,18.46-1.33,27.28-3.83,4.99-1.33,7.49.67,7.49,5.82v31.44c0,4.16-1.5,6.65-4.66,7.49-12.48,3.49-26.62,5.32-42.26,5.32-24.12,0-40.26-3.49-53.4-13.81ZM481.4,215.69c20.46-2.66,33.27-11.65,33.27-24.79,0-5.16-3.66-9.32-8.82-9.32-12.64,0-19.79,10.32-26.28,32.44-.5,1.33.5,2.16,1.83,1.66Z"/>
  <path class="cls-1" d="M836.24,146.99l-.18,1.02-28.44,161.35c-11.41,64.73-73.13,107.92-137.82,96.51-57.73-10.18-98.35-60.4-98.35-117.02,0-6.88.58-13.81,1.81-20.81l25.4-144.11c-.2-.41-.64-.58-1.35-.58l-4.65-.64c-3.83-.67-5.47-3.16-4.83-7.49l4.51-25.28c.67-4.51,3.34-6.82,7.81-6.82h58.23c4.1,0,6.12,1.93,5.91,5.71l-.21,1.17-33.24,188.53c-.61,3.54-.94,7.08-.94,10.56,0,28.79,20.63,54.28,49.98,59.49,31.98,5.62,62.12-14.37,69.15-45.71,0,0,.39-1.47.59-3.29.19-1.82-.59-2.21-2.08-1.36-9.31,5.65-20.81,8.49-34.27,8.49-18.14,0-29.93-5.01-35.44-15.16-5.5-10.15-6.32-26.77-2.17-49.89l10.33-58.23c.15-1.17-.18-1.84-1.35-2.16l-5.82-.67c-3.83-.67-5.5-3.16-4.83-7.49l4.51-25.11c.82-4.51,3.66-6.82,8.13-6.82h59.23c4.51,0,6.32,2.31,5.5,6.82l-14.31,81.03c-4.01,23.44-3.16,31.25,6.82,31.25,8.66,0,13.81-5.15,15.63-15.3l15.01-84.83,2.14-12.14c.82-4.51,3.66-6.82,8.16-6.82h45.77c4.13,0,6.03,1.96,5.65,5.82Z"/>
  <path class="cls-2" d="M227.17,103.36c.83-5.9,2-10.05,3.49-12.44,1.33-2.39,4.16-4.3,8.49-5.74,4.33-1.43,10.98-2.07,20.13-2.07,26.78-.16,27.12,4.94,24.45,20.25-1.16,5.9-2.33,10.04-3.66,12.43-1.5,2.55-4.33,4.47-8.48,5.9-4.33,1.43-10.98,2.23-19.8,2.23-27.62,0-27.45-4.78-24.62-20.57Z"/>
  <path class="cls-2" d="M281.04,147.98c.67-4.49-1.33-6.82-5.82-6.82h-104.94c-1.13-.18-1.47-.68-1.3-1.84l6.93-37.47c2.84-12.14,10.65-18.29,23.12-18.29h3.83c4.98,0,7.99-1.99,8.81-5.82l5.5-24.61c.82-4.19-.5-6.67-4.15-7.84-7.32-1.99-16.8-2.98-28.62-2.98-38.1,0-59.9,18.29-67.71,59.55l-6.93,37.47c-.32,1.17-1,1.84-1.84,1.84h-10.48c-4.48,0-7.32,2.31-8.13,6.82l-4.51,24.79c-.64,3.83,1.35,6.14,5.82,6.82l10.15,1.34c1.17.15,1.49.82,1.32,1.64l-27.86,159.1c-2.17,11.79-10.97,19.11-21.77,19.11h-4.33c-3.16-.15-5,1.67-5.5,5.82l-3.83,30.61c-.5,4.33,1.35,6.99,5.18,7.84,7.99,1.82,16.47,2.63,25.6,2.63,18.14,0,31.95-4.48,41.76-13.29,9.8-8.98,16.65-24.14,20.45-45.59l29.64-165.92c.17-1.12.83-1.62,1.94-1.63h49.48s1.48,0,1.48,0c1.16.33,1.5,1,1.33,2.16l-15.8,87.84c-3.83,22.46-1.5,38.09,6.99,46.74,8.32,8.82,21.96,13.14,40.76,13.14,2.16,0,5.82-.17,10.98-.33,4.33-.5,6.99-3,7.82-7.49l6.49-30.61c1.16-4.49-.67-6.82-5.49-6.82-.83,0-1.66-.16-2.33-.33-5.16-.83-6.99-6.15-5.49-15.97l21.46-121.61Z"/>
</svg>
